<?xml version="1.0" encoding="utf-8" standalone="no"?>
<!DOCTYPE svg PUBLIC "-//W3C//DTD SVG 1.1//EN"
  "http://www.w3.org/Graphics/SVG/1.1/DTD/svg11.dtd">
<svg xmlns:xlink="http://www.w3.org/1999/xlink" width="864pt" height="576pt" viewBox="0 0 864 576" xmlns="http://www.w3.org/2000/svg" version="1.1">
 <metadata>
  <rdf:RDF xmlns:dc="http://purl.org/dc/elements/1.1/" xmlns:cc="http://creativecommons.org/ns#" xmlns:rdf="http://www.w3.org/1999/02/22-rdf-syntax-ns#">
   <cc:Work>
    <dc:type rdf:resource="http://purl.org/dc/dcmitype/StillImage"/>
    <dc:date>2024-07-01T21:41:57.564851</dc:date>
    <dc:format>image/svg+xml</dc:format>
    <dc:creator>
     <cc:Agent>
      <dc:title>Matplotlib v3.7.1, https://matplotlib.org/</dc:title>
     </cc:Agent>
    </dc:creator>
   </cc:Work>
  </rdf:RDF>
 </metadata>
 <defs>
  <style type="text/css">*{stroke-linejoin: round; stroke-linecap: butt}</style>
 </defs>
 <g id="figure_1">
  <g id="patch_1">
   <path d="M 0 576 
L 864 576 
L 864 0 
L 0 0 
z
" style="fill: #ffffff"/>
  </g>
  <g id="axes_1">
   <g id="patch_2">
    <path d="M 87.5 506.68 
L 763.753922 506.68 
L 763.753922 42 
L 87.5 42 
z
" style="fill: #ffffff"/>
   </g>
   <g id="matplotlib.axis_1">
    <g id="xtick_1">
     <g id="line2d_1">
      <defs>
       <path id="m5b797ebaa3" d="M 0 0 
L 0 3.5 
" style="stroke: #000000; stroke-width: 0.8"/>
      </defs>
      <g>
       <use xlink:href="#m5b797ebaa3" x="87.5" y="506.68" style="stroke: #000000; stroke-width: 0.8"/>
      </g>
     </g>
     <g id="text_1">
      <!-- 0.0 -->
      <g transform="translate(74.99 526.592188) scale(0.18 -0.18)">
       <defs>
        <path id="Helvetica-30" d="M 1731 4475 
Q 2600 4475 2988 3759 
Q 3288 3206 3288 2244 
Q 3288 1331 3016 734 
Q 2622 -122 1728 -122 
Q 922 -122 528 578 
Q 200 1163 200 2147 
Q 200 2909 397 3456 
Q 766 4475 1731 4475 
z
M 1725 391 
Q 2163 391 2422 778 
Q 2681 1166 2681 2222 
Q 2681 2984 2493 3476 
Q 2306 3969 1766 3969 
Q 1269 3969 1039 3501 
Q 809 3034 809 2125 
Q 809 1441 956 1025 
Q 1181 391 1725 391 
z
" transform="scale(0.015625)"/>
        <path id="Helvetica-2e" d="M 547 681 
L 1200 681 
L 1200 0 
L 547 0 
L 547 681 
z
" transform="scale(0.015625)"/>
       </defs>
       <use xlink:href="#Helvetica-30"/>
       <use xlink:href="#Helvetica-2e" x="55.615234"/>
       <use xlink:href="#Helvetica-30" x="83.398438"/>
      </g>
     </g>
    </g>
    <g id="xtick_2">
     <g id="line2d_2">
      <g>
       <use xlink:href="#m5b797ebaa3" x="222.750784" y="506.68" style="stroke: #000000; stroke-width: 0.8"/>
      </g>
     </g>
     <g id="text_2">
      <!-- 0.2 -->
      <g transform="translate(210.240784 526.592188) scale(0.18 -0.18)">
       <defs>
        <path id="Helvetica-32" d="M 200 0 
Q 231 578 439 1006 
Q 647 1434 1250 1784 
L 1850 2131 
Q 2253 2366 2416 2531 
Q 2672 2791 2672 3125 
Q 2672 3516 2437 3745 
Q 2203 3975 1813 3975 
Q 1234 3975 1013 3538 
Q 894 3303 881 2888 
L 309 2888 
Q 319 3472 525 3841 
Q 891 4491 1816 4491 
Q 2584 4491 2939 4075 
Q 3294 3659 3294 3150 
Q 3294 2613 2916 2231 
Q 2697 2009 2131 1694 
L 1703 1456 
Q 1397 1288 1222 1134 
Q 909 863 828 531 
L 3272 531 
L 3272 0 
L 200 0 
z
" transform="scale(0.015625)"/>
       </defs>
       <use xlink:href="#Helvetica-30"/>
       <use xlink:href="#Helvetica-2e" x="55.615234"/>
       <use xlink:href="#Helvetica-32" x="83.398438"/>
      </g>
     </g>
    </g>
    <g id="xtick_3">
     <g id="line2d_3">
      <g>
       <use xlink:href="#m5b797ebaa3" x="358.001569" y="506.68" style="stroke: #000000; stroke-width: 0.8"/>
      </g>
     </g>
     <g id="text_3">
      <!-- 0.4 -->
      <g transform="translate(345.491569 526.592188) scale(0.18 -0.18)">
       <defs>
        <path id="Helvetica-34" d="M 2116 1584 
L 2116 3613 
L 681 1584 
L 2116 1584 
z
M 2125 0 
L 2125 1094 
L 163 1094 
L 163 1644 
L 2213 4488 
L 2688 4488 
L 2688 1584 
L 3347 1584 
L 3347 1094 
L 2688 1094 
L 2688 0 
L 2125 0 
z
" transform="scale(0.015625)"/>
       </defs>
       <use xlink:href="#Helvetica-30"/>
       <use xlink:href="#Helvetica-2e" x="55.615234"/>
       <use xlink:href="#Helvetica-34" x="83.398438"/>
      </g>
     </g>
    </g>
    <g id="xtick_4">
     <g id="line2d_4">
      <g>
       <use xlink:href="#m5b797ebaa3" x="493.252353" y="506.68" style="stroke: #000000; stroke-width: 0.8"/>
      </g>
     </g>
     <g id="text_4">
      <!-- 0.6 -->
      <g transform="translate(480.742353 526.592188) scale(0.18 -0.18)">
       <defs>
        <path id="Helvetica-36" d="M 1872 4494 
Q 2622 4494 2917 4105 
Q 3213 3716 3213 3303 
L 2656 3303 
Q 2606 3569 2497 3719 
Q 2294 4000 1881 4000 
Q 1409 4000 1131 3564 
Q 853 3128 822 2316 
Q 1016 2600 1309 2741 
Q 1578 2866 1909 2866 
Q 2472 2866 2890 2506 
Q 3309 2147 3309 1434 
Q 3309 825 2912 354 
Q 2516 -116 1781 -116 
Q 1153 -116 697 361 
Q 241 838 241 1966 
Q 241 2800 444 3381 
Q 834 4494 1872 4494 
z
M 1831 384 
Q 2275 384 2495 682 
Q 2716 981 2716 1388 
Q 2716 1731 2519 2042 
Q 2322 2353 1803 2353 
Q 1441 2353 1167 2112 
Q 894 1872 894 1388 
Q 894 963 1142 673 
Q 1391 384 1831 384 
z
" transform="scale(0.015625)"/>
       </defs>
       <use xlink:href="#Helvetica-30"/>
       <use xlink:href="#Helvetica-2e" x="55.615234"/>
       <use xlink:href="#Helvetica-36" x="83.398438"/>
      </g>
     </g>
    </g>
    <g id="xtick_5">
     <g id="line2d_5">
      <g>
       <use xlink:href="#m5b797ebaa3" x="628.503138" y="506.68" style="stroke: #000000; stroke-width: 0.8"/>
      </g>
     </g>
     <g id="text_5">
      <!-- 0.8 -->
      <g transform="translate(615.993138 526.592188) scale(0.18 -0.18)">
       <defs>
        <path id="Helvetica-38" d="M 1741 2600 
Q 2113 2600 2322 2808 
Q 2531 3016 2531 3303 
Q 2531 3553 2331 3762 
Q 2131 3972 1722 3972 
Q 1316 3972 1134 3762 
Q 953 3553 953 3272 
Q 953 2956 1187 2778 
Q 1422 2600 1741 2600 
z
M 1775 384 
Q 2166 384 2423 595 
Q 2681 806 2681 1225 
Q 2681 1659 2415 1884 
Q 2150 2109 1734 2109 
Q 1331 2109 1076 1879 
Q 822 1650 822 1244 
Q 822 894 1055 639 
Q 1288 384 1775 384 
z
M 975 2384 
Q 741 2484 609 2619 
Q 363 2869 363 3269 
Q 363 3769 725 4128 
Q 1088 4488 1753 4488 
Q 2397 4488 2762 4148 
Q 3128 3809 3128 3356 
Q 3128 2938 2916 2678 
Q 2797 2531 2547 2391 
Q 2825 2263 2984 2097 
Q 3281 1784 3281 1284 
Q 3281 694 2884 283 
Q 2488 -128 1763 -128 
Q 1109 -128 657 226 
Q 206 581 206 1256 
Q 206 1653 400 1942 
Q 594 2231 975 2384 
z
" transform="scale(0.015625)"/>
       </defs>
       <use xlink:href="#Helvetica-30"/>
       <use xlink:href="#Helvetica-2e" x="55.615234"/>
       <use xlink:href="#Helvetica-38" x="83.398438"/>
      </g>
     </g>
    </g>
    <g id="xtick_6">
     <g id="line2d_6">
      <g>
       <use xlink:href="#m5b797ebaa3" x="763.753922" y="506.68" style="stroke: #000000; stroke-width: 0.8"/>
      </g>
     </g>
     <g id="text_6">
      <!-- 1.0 -->
      <g transform="translate(751.243922 526.592188) scale(0.18 -0.18)">
       <defs>
        <path id="Helvetica-31" d="M 613 3169 
L 613 3600 
Q 1222 3659 1462 3798 
Q 1703 3938 1822 4456 
L 2266 4456 
L 2266 0 
L 1666 0 
L 1666 3169 
L 613 3169 
z
" transform="scale(0.015625)"/>
       </defs>
       <use xlink:href="#Helvetica-31"/>
       <use xlink:href="#Helvetica-2e" x="55.615234"/>
       <use xlink:href="#Helvetica-30" x="83.398438"/>
      </g>
     </g>
    </g>
    <g id="text_7">
     <!-- t (Time) -->
     <g transform="translate(387.74743 550.287187) scale(0.22 -0.22)">
      <defs>
       <path id="Helvetica-74" d="M 525 4281 
L 1094 4281 
L 1094 3347 
L 1628 3347 
L 1628 2888 
L 1094 2888 
L 1094 703 
Q 1094 528 1213 469 
Q 1278 434 1431 434 
Q 1472 434 1519 436 
Q 1566 438 1628 444 
L 1628 0 
Q 1531 -28 1426 -40 
Q 1322 -53 1200 -53 
Q 806 -53 665 148 
Q 525 350 525 672 
L 525 2888 
L 72 2888 
L 72 3347 
L 525 3347 
L 525 4281 
z
" transform="scale(0.015625)"/>
       <path id="Helvetica-20" transform="scale(0.015625)"/>
       <path id="Helvetica-28" d="M 1894 4666 
Q 1403 3713 1256 3263 
Q 1034 2578 1034 1681 
Q 1034 775 1288 25 
Q 1444 -438 1903 -1306 
L 1525 -1306 
Q 1069 -594 959 -397 
Q 850 -200 722 138 
Q 547 600 478 1125 
Q 444 1397 444 1644 
Q 444 2569 734 3291 
Q 919 3750 1503 4666 
L 1894 4666 
z
" transform="scale(0.015625)"/>
       <path id="Helvetica-54" d="M 3828 4591 
L 3828 4044 
L 2281 4044 
L 2281 0 
L 1650 0 
L 1650 4044 
L 103 4044 
L 103 4591 
L 3828 4591 
z
" transform="scale(0.015625)"/>
       <path id="Helvetica-69" d="M 413 3331 
L 984 3331 
L 984 0 
L 413 0 
L 413 3331 
z
M 413 4591 
L 984 4591 
L 984 3953 
L 413 3953 
L 413 4591 
z
" transform="scale(0.015625)"/>
       <path id="Helvetica-6d" d="M 413 3347 
L 969 3347 
L 969 2872 
Q 1169 3119 1331 3231 
Q 1609 3422 1963 3422 
Q 2363 3422 2606 3225 
Q 2744 3113 2856 2894 
Q 3044 3163 3297 3292 
Q 3550 3422 3866 3422 
Q 4541 3422 4784 2934 
Q 4916 2672 4916 2228 
L 4916 0 
L 4331 0 
L 4331 2325 
Q 4331 2659 4164 2784 
Q 3997 2909 3756 2909 
Q 3425 2909 3186 2687 
Q 2947 2466 2947 1947 
L 2947 0 
L 2375 0 
L 2375 2184 
Q 2375 2525 2294 2681 
Q 2166 2916 1816 2916 
Q 1497 2916 1236 2669 
Q 975 2422 975 1775 
L 975 0 
L 413 0 
L 413 3347 
z
" transform="scale(0.015625)"/>
       <path id="Helvetica-65" d="M 1806 3422 
Q 2163 3422 2497 3255 
Q 2831 3088 3006 2822 
Q 3175 2569 3231 2231 
Q 3281 2000 3281 1494 
L 828 1494 
Q 844 984 1069 676 
Q 1294 369 1766 369 
Q 2206 369 2469 659 
Q 2619 828 2681 1050 
L 3234 1050 
Q 3213 866 3089 639 
Q 2966 413 2813 269 
Q 2556 19 2178 -69 
Q 1975 -119 1719 -119 
Q 1094 -119 659 336 
Q 225 791 225 1609 
Q 225 2416 662 2919 
Q 1100 3422 1806 3422 
z
M 2703 1941 
Q 2669 2306 2544 2525 
Q 2313 2931 1772 2931 
Q 1384 2931 1121 2651 
Q 859 2372 844 1941 
L 2703 1941 
z
M 1753 3428 
L 1753 3428 
z
" transform="scale(0.015625)"/>
       <path id="Helvetica-29" d="M 222 -1306 
Q 719 -338 863 106 
Q 1081 778 1081 1681 
Q 1081 2584 828 3334 
Q 672 3797 213 4666 
L 591 4666 
Q 1072 3897 1173 3717 
Q 1275 3538 1394 3222 
Q 1544 2831 1608 2450 
Q 1672 2069 1672 1716 
Q 1672 791 1378 66 
Q 1194 -400 613 -1306 
L 222 -1306 
z
" transform="scale(0.015625)"/>
      </defs>
      <use xlink:href="#Helvetica-74"/>
      <use xlink:href="#Helvetica-20" x="27.783203"/>
      <use xlink:href="#Helvetica-28" x="55.566406"/>
      <use xlink:href="#Helvetica-54" x="88.867188"/>
      <use xlink:href="#Helvetica-69" x="149.951172"/>
      <use xlink:href="#Helvetica-6d" x="172.167969"/>
      <use xlink:href="#Helvetica-65" x="255.46875"/>
      <use xlink:href="#Helvetica-29" x="311.083984"/>
     </g>
    </g>
   </g>
   <g id="matplotlib.axis_2">
    <g id="ytick_1">
     <g id="line2d_7">
      <defs>
       <path id="mad51341222" d="M 0 0 
L -3.5 0 
" style="stroke: #000000; stroke-width: 0.8"/>
      </defs>
      <g>
       <use xlink:href="#mad51341222" x="87.5" y="467.846955" style="stroke: #000000; stroke-width: 0.8"/>
      </g>
     </g>
     <g id="text_8">
      <!-- −0.2 -->
      <g transform="translate(44.966875 474.303048) scale(0.18 -0.18)">
       <defs>
        <path id="Helvetica-2212" d="M 3547 1894 
L 3547 1369 
L 288 1369 
L 288 1894 
L 3547 1894 
z
" transform="scale(0.015625)"/>
       </defs>
       <use xlink:href="#Helvetica-2212"/>
       <use xlink:href="#Helvetica-30" x="58.398438"/>
       <use xlink:href="#Helvetica-2e" x="114.013672"/>
       <use xlink:href="#Helvetica-32" x="141.796875"/>
      </g>
     </g>
    </g>
    <g id="ytick_2">
     <g id="line2d_8">
      <g>
       <use xlink:href="#mad51341222" x="87.5" y="409.270734" style="stroke: #000000; stroke-width: 0.8"/>
      </g>
     </g>
     <g id="text_9">
      <!-- 0.0 -->
      <g transform="translate(55.48 415.726828) scale(0.18 -0.18)">
       <use xlink:href="#Helvetica-30"/>
       <use xlink:href="#Helvetica-2e" x="55.615234"/>
       <use xlink:href="#Helvetica-30" x="83.398438"/>
      </g>
     </g>
    </g>
    <g id="ytick_3">
     <g id="line2d_9">
      <g>
       <use xlink:href="#mad51341222" x="87.5" y="350.694514" style="stroke: #000000; stroke-width: 0.8"/>
      </g>
     </g>
     <g id="text_10">
      <!-- 0.2 -->
      <g transform="translate(55.48 357.150607) scale(0.18 -0.18)">
       <use xlink:href="#Helvetica-30"/>
       <use xlink:href="#Helvetica-2e" x="55.615234"/>
       <use xlink:href="#Helvetica-32" x="83.398438"/>
      </g>
     </g>
    </g>
    <g id="ytick_4">
     <g id="line2d_10">
      <g>
       <use xlink:href="#mad51341222" x="87.5" y="292.118293" style="stroke: #000000; stroke-width: 0.8"/>
      </g>
     </g>
     <g id="text_11">
      <!-- 0.4 -->
      <g transform="translate(55.48 298.574387) scale(0.18 -0.18)">
       <use xlink:href="#Helvetica-30"/>
       <use xlink:href="#Helvetica-2e" x="55.615234"/>
       <use xlink:href="#Helvetica-34" x="83.398438"/>
      </g>
     </g>
    </g>
    <g id="ytick_5">
     <g id="line2d_11">
      <g>
       <use xlink:href="#mad51341222" x="87.5" y="233.542073" style="stroke: #000000; stroke-width: 0.8"/>
      </g>
     </g>
     <g id="text_12">
      <!-- 0.6 -->
      <g transform="translate(55.48 239.998166) scale(0.18 -0.18)">
       <use xlink:href="#Helvetica-30"/>
       <use xlink:href="#Helvetica-2e" x="55.615234"/>
       <use xlink:href="#Helvetica-36" x="83.398438"/>
      </g>
     </g>
    </g>
    <g id="ytick_6">
     <g id="line2d_12">
      <g>
       <use xlink:href="#mad51341222" x="87.5" y="174.965852" style="stroke: #000000; stroke-width: 0.8"/>
      </g>
     </g>
     <g id="text_13">
      <!-- 0.8 -->
      <g transform="translate(55.48 181.421946) scale(0.18 -0.18)">
       <use xlink:href="#Helvetica-30"/>
       <use xlink:href="#Helvetica-2e" x="55.615234"/>
       <use xlink:href="#Helvetica-38" x="83.398438"/>
      </g>
     </g>
    </g>
    <g id="ytick_7">
     <g id="line2d_13">
      <g>
       <use xlink:href="#mad51341222" x="87.5" y="116.389632" style="stroke: #000000; stroke-width: 0.8"/>
      </g>
     </g>
     <g id="text_14">
      <!-- 1.0 -->
      <g transform="translate(55.48 122.845725) scale(0.18 -0.18)">
       <use xlink:href="#Helvetica-31"/>
       <use xlink:href="#Helvetica-2e" x="55.615234"/>
       <use xlink:href="#Helvetica-30" x="83.398438"/>
      </g>
     </g>
    </g>
    <g id="ytick_8">
     <g id="line2d_14">
      <g>
       <use xlink:href="#mad51341222" x="87.5" y="57.813411" style="stroke: #000000; stroke-width: 0.8"/>
      </g>
     </g>
     <g id="text_15">
      <!-- 1.2 -->
      <g transform="translate(55.48 64.269505) scale(0.18 -0.18)">
       <use xlink:href="#Helvetica-31"/>
       <use xlink:href="#Helvetica-2e" x="55.615234"/>
       <use xlink:href="#Helvetica-32" x="83.398438"/>
      </g>
     </g>
    </g>
    <g id="text_16">
     <!-- X(t) -->
     <g transform="translate(36.38125 292.058594) rotate(-90) scale(0.22 -0.22)">
      <defs>
       <path id="Helvetica-58" d="M 881 0 
L 131 0 
L 1775 2353 
L 234 4591 
L 1013 4591 
L 2184 2834 
L 3347 4591 
L 4088 4591 
L 2547 2353 
L 4163 0 
L 3391 0 
L 2153 1888 
L 881 0 
z
" transform="scale(0.015625)"/>
      </defs>
      <use xlink:href="#Helvetica-58"/>
      <use xlink:href="#Helvetica-28" x="66.699219"/>
      <use xlink:href="#Helvetica-74" x="100"/>
      <use xlink:href="#Helvetica-29" x="127.783203"/>
     </g>
    </g>
   </g>
   <g id="line2d_15">
    <path d="M 87.5 409.270734 
L 88.855218 402.886231 
L 90.210437 402.37109 
L 91.565655 406.771628 
L 92.920873 394.971012 
L 94.276091 400.898039 
L 95.63131 403.351762 
L 96.986528 393.575826 
L 98.341746 398.363392 
L 99.696965 397.076649 
L 101.052183 400.535012 
L 102.407401 392.510794 
L 103.762619 389.887326 
L 105.117838 395.28771 
L 106.473056 399.040056 
L 107.828274 390.318341 
L 109.183492 389.489433 
L 110.538711 379.395043 
L 111.893929 387.961553 
L 113.249147 380.330041 
L 114.604366 386.188109 
L 115.959584 387.701683 
L 117.314802 388.80397 
L 118.67002 390.728954 
L 120.025239 398.781258 
L 121.380457 398.641411 
L 122.735675 396.267811 
L 124.090894 391.985271 
L 125.446112 383.117161 
L 126.80133 390.021584 
L 128.156548 386.276846 
L 129.511767 389.92184 
L 132.222203 383.963156 
L 133.577422 385.19568 
L 134.93264 383.286899 
L 136.287858 383.372605 
L 137.643076 384.117409 
L 138.998295 369.840259 
L 140.353513 375.78015 
L 141.708731 379.255058 
L 143.063949 383.185609 
L 144.419168 379.226849 
L 145.774386 379.964738 
L 147.129604 378.720244 
L 148.484823 368.675609 
L 149.840041 371.799406 
L 151.195259 375.959735 
L 152.550477 360.406573 
L 153.905696 370.867949 
L 155.260914 374.040386 
L 156.616132 390.172494 
L 157.971351 397.477714 
L 159.326569 395.833693 
L 160.681787 385.113435 
L 162.037005 392.494949 
L 163.392224 401.148503 
L 164.747442 402.900672 
L 166.10266 402.480676 
L 167.457879 405.890405 
L 168.813097 410.33456 
L 170.168315 400.342186 
L 171.523533 399.054433 
L 172.878752 394.068841 
L 174.23397 402.257883 
L 175.589188 404.412947 
L 176.944407 416.200511 
L 178.299625 413.664039 
L 181.010061 417.417439 
L 182.36528 416.022344 
L 185.075716 438.862094 
L 186.430934 435.935046 
L 187.786153 440.377124 
L 189.141371 434.310197 
L 190.496589 437.100548 
L 191.851808 447.168878 
L 194.562244 459.425002 
L 195.917462 459.701747 
L 197.272681 461.769852 
L 198.627899 462.510145 
L 199.983117 470.170476 
L 201.338336 472.957779 
L 202.693554 464.305856 
L 204.048772 457.385231 
L 205.40399 463.797711 
L 206.759209 465.903188 
L 208.114427 471.273067 
L 209.469645 469.364998 
L 210.824864 471.053272 
L 212.180082 476.903204 
L 213.5353 475.845668 
L 214.890518 484.307428 
L 216.245737 485.558182 
L 217.600955 480.954731 
L 218.956173 475.391059 
L 220.311391 473.080148 
L 221.66661 476.970492 
L 223.021828 469.947615 
L 224.377046 459.624331 
L 225.732265 452.457738 
L 227.087483 449.224701 
L 228.442701 451.210173 
L 229.797919 452.978647 
L 231.153138 452.628627 
L 235.218793 466.660989 
L 236.574011 455.474196 
L 237.929229 459.850937 
L 239.284447 460.384891 
L 241.994884 475.003081 
L 243.350102 467.275036 
L 244.705321 469.178891 
L 246.060539 471.796977 
L 247.415757 471.014324 
L 248.770975 463.430031 
L 250.126194 456.881206 
L 251.481412 461.025337 
L 252.83663 459.78317 
L 254.191848 456.179931 
L 255.547067 452.127677 
L 256.902285 454.402208 
L 258.257503 445.1999 
L 259.612722 447.66095 
L 260.96794 465.941826 
L 262.323158 457.539777 
L 263.678376 457.236113 
L 265.033595 466.223288 
L 266.388813 471.460326 
L 267.744031 463.17433 
L 269.09925 467.769745 
L 270.454468 470.522312 
L 271.809686 475.742313 
L 273.164904 462.503295 
L 274.520123 461.266344 
L 277.230559 441.815794 
L 278.585778 442.685397 
L 279.940996 446.569532 
L 281.296214 448.911693 
L 282.651432 456.380815 
L 284.006651 452.38758 
L 285.361869 444.931858 
L 286.717087 431.569605 
L 288.072305 442.235036 
L 289.427524 446.098389 
L 290.782742 445.41275 
L 292.13796 430.792262 
L 293.493179 431.37346 
L 294.848397 427.978039 
L 296.203615 430.885626 
L 297.558833 435.696952 
L 298.914052 434.46673 
L 300.26927 434.02132 
L 301.624488 424.752792 
L 302.979707 432.60421 
L 304.334925 433.639249 
L 305.690143 434.833047 
L 307.045361 434.110502 
L 308.40058 426.323758 
L 309.755798 414.98097 
L 311.111016 416.972024 
L 312.466235 422.263925 
L 313.821453 425.744892 
L 315.176671 421.824772 
L 316.531889 429.917769 
L 317.887108 410.354871 
L 319.242326 414.896808 
L 320.597544 408.529837 
L 321.952762 405.847369 
L 323.307981 395.310169 
L 324.663199 395.749625 
L 326.018417 402.674267 
L 327.373636 399.823036 
L 328.728854 407.54306 
L 330.084072 417.056763 
L 331.43929 407.895022 
L 332.794509 403.178432 
L 334.149727 402.015679 
L 335.504945 400.072753 
L 336.860164 405.766728 
L 338.215382 406.119058 
L 339.5706 405.829662 
L 340.925818 417.72892 
L 342.281037 421.951399 
L 343.636255 411.937205 
L 344.991473 409.461702 
L 346.346692 411.66484 
L 347.70191 415.813325 
L 349.057128 430.770389 
L 350.412346 434.252398 
L 351.767565 433.046868 
L 353.122783 429.334553 
L 354.478001 432.195738 
L 355.83322 425.073102 
L 357.188438 434.559155 
L 358.543656 428.229917 
L 359.898874 438.959336 
L 361.254093 452.049028 
L 362.609311 450.509021 
L 363.964529 442.169958 
L 365.319747 445.167626 
L 366.674966 430.381816 
L 368.030184 429.414783 
L 369.385402 433.228838 
L 370.740621 432.290582 
L 372.095839 432.475638 
L 373.451057 426.947826 
L 374.806275 439.7275 
L 376.161494 439.590924 
L 377.516712 444.355892 
L 378.87193 447.485557 
L 380.227149 445.279586 
L 381.582367 440.67717 
L 382.937585 438.083863 
L 384.292803 444.662845 
L 385.648022 441.16178 
L 387.00324 435.244067 
L 388.358458 439.765409 
L 389.713677 439.820862 
L 391.068895 442.809592 
L 392.424113 438.335059 
L 393.779331 439.651819 
L 395.13455 445.50442 
L 396.489768 455.575637 
L 397.844986 458.210899 
L 399.200204 458.872546 
L 400.555423 469.849439 
L 401.910641 462.936463 
L 403.265859 461.41417 
L 404.621078 460.903017 
L 405.976296 463.756067 
L 407.331514 467.167177 
L 408.686732 461.624945 
L 410.041951 453.50182 
L 411.397169 454.312372 
L 412.752387 454.69564 
L 414.107606 467.986116 
L 415.462824 467.508174 
L 416.818042 458.924759 
L 418.17326 453.838982 
L 419.528479 450.814246 
L 420.883697 462.144015 
L 422.238915 458.502259 
L 423.594134 470.13075 
L 424.949352 467.089798 
L 426.30457 466.216629 
L 427.659788 456.959514 
L 429.015007 459.586779 
L 430.370225 444.934722 
L 431.725443 445.306236 
L 433.080661 444.987456 
L 434.43588 443.458154 
L 435.791098 436.001479 
L 437.146316 435.462916 
L 438.501535 415.361566 
L 439.856753 400.260413 
L 441.211971 387.160415 
L 442.567189 378.076653 
L 443.922408 374.548667 
L 445.277626 374.77307 
L 446.632844 365.259139 
L 447.988063 357.730518 
L 449.343281 358.462858 
L 450.698499 356.974943 
L 452.053717 368.134319 
L 453.408936 369.238124 
L 454.764154 360.116942 
L 456.119372 365.578864 
L 457.474591 366.516188 
L 458.829809 353.215252 
L 460.185027 365.079284 
L 461.540245 363.319641 
L 462.895464 362.756106 
L 464.250682 364.833409 
L 465.6059 367.262296 
L 466.961118 375.814214 
L 468.316337 372.646539 
L 469.671555 373.894915 
L 471.026773 378.982792 
L 472.381992 373.733257 
L 473.73721 366.087793 
L 475.092428 362.736995 
L 476.447646 354.929792 
L 477.802865 359.587195 
L 479.158083 367.565237 
L 480.513301 359.678882 
L 483.223738 350.534729 
L 484.578956 347.990722 
L 485.934174 349.577772 
L 487.289393 345.111614 
L 488.644611 337.570214 
L 489.999829 333.550425 
L 491.355048 333.316495 
L 492.710266 326.946416 
L 494.065484 316.297908 
L 495.420702 329.07268 
L 496.775921 336.973434 
L 498.131139 330.490675 
L 499.486357 325.769004 
L 500.841575 326.339942 
L 502.196794 331.919938 
L 503.552012 327.761588 
L 504.90723 338.168196 
L 506.262449 333.358871 
L 507.617667 337.561439 
L 508.972885 341.04659 
L 510.328103 341.219002 
L 511.683322 351.537104 
L 513.03854 354.609675 
L 514.393758 358.087907 
L 515.748977 356.001962 
L 517.104195 366.826235 
L 518.459413 360.945126 
L 519.814631 353.28447 
L 521.16985 341.847883 
L 522.525068 338.952467 
L 523.880286 343.334805 
L 525.235505 349.355323 
L 526.590723 357.014911 
L 527.945941 357.228955 
L 529.301159 355.613709 
L 530.656378 362.493684 
L 533.366814 372.492163 
L 534.722033 384.664198 
L 536.077251 378.292311 
L 537.432469 380.285912 
L 538.787687 370.825084 
L 540.142906 376.869481 
L 541.498124 371.677465 
L 542.853342 373.275049 
L 544.20856 370.424103 
L 545.563779 358.038617 
L 546.918997 356.00107 
L 548.274215 347.306021 
L 549.629434 357.68148 
L 550.984652 369.833424 
L 552.33987 366.106632 
L 553.695088 365.605765 
L 555.050307 355.703118 
L 556.405525 362.1877 
L 557.760743 353.434274 
L 559.115962 358.79272 
L 560.47118 364.973132 
L 561.826398 371.921978 
L 563.181616 377.945865 
L 564.536835 375.139667 
L 565.892053 375.971663 
L 567.247271 370.105774 
L 568.60249 358.567407 
L 569.957708 365.224684 
L 571.312926 365.161221 
L 572.668144 366.50075 
L 574.023363 374.004486 
L 575.378581 365.766024 
L 576.733799 359.019483 
L 578.089017 353.229037 
L 579.444236 359.680734 
L 580.799454 354.725456 
L 582.154672 341.73277 
L 583.509891 340.568432 
L 584.865109 334.044053 
L 586.220327 328.260023 
L 587.575545 320.672129 
L 588.930764 319.958826 
L 590.285982 323.664618 
L 591.6412 323.792686 
L 592.996419 317.372876 
L 594.351637 321.680687 
L 595.706855 319.601042 
L 597.062073 309.918443 
L 598.417292 312.504276 
L 599.77251 313.358342 
L 601.127728 309.321454 
L 602.482947 311.462606 
L 603.838165 319.04017 
L 605.193383 322.857301 
L 607.90382 340.235161 
L 609.259038 335.497697 
L 610.614256 331.7336 
L 611.969474 330.480284 
L 613.324693 335.430579 
L 614.679911 336.381212 
L 616.035129 344.531003 
L 617.390348 350.382609 
L 618.745566 344.9368 
L 621.456002 371.655765 
L 622.811221 374.916948 
L 624.166439 375.510364 
L 625.521657 383.7159 
L 626.876876 380.936291 
L 628.232094 389.944055 
L 629.587312 383.717802 
L 630.94253 400.320129 
L 632.297749 404.905522 
L 633.652967 405.273641 
L 635.008185 399.335248 
L 636.363404 389.768407 
L 637.718622 387.306808 
L 639.07384 394.734729 
L 640.429058 396.217144 
L 641.784277 399.428377 
L 643.139495 397.485997 
L 644.494713 399.576908 
L 645.849931 396.909782 
L 647.20515 390.937312 
L 648.560368 388.726115 
L 649.915586 388.169223 
L 651.270805 379.569389 
L 652.626023 375.31023 
L 653.981241 364.390307 
L 655.336459 362.403005 
L 656.691678 366.496031 
L 658.046896 364.31636 
L 659.402114 359.290017 
L 660.757333 371.125677 
L 662.112551 377.240998 
L 663.467769 371.062341 
L 664.822987 375.697503 
L 666.178206 375.031092 
L 667.533424 371.270815 
L 668.888642 364.730281 
L 670.243861 354.253505 
L 671.599079 352.281047 
L 672.954297 359.232938 
L 674.309515 362.654892 
L 675.664734 372.61498 
L 677.019952 373.269993 
L 678.37517 375.726917 
L 681.085607 364.206605 
L 682.440825 363.952666 
L 683.796043 363.283591 
L 685.151262 368.878004 
L 686.50648 372.243597 
L 687.861698 360.530329 
L 689.216916 359.714076 
L 690.572135 359.895545 
L 691.927353 353.692739 
L 693.282571 352.9446 
L 694.63779 360.444363 
L 695.993008 355.21254 
L 698.703444 365.433031 
L 700.058663 377.700095 
L 701.413881 368.661168 
L 702.769099 369.803076 
L 704.124318 364.361047 
L 705.479536 369.988412 
L 706.834754 366.750257 
L 708.189972 373.365755 
L 709.545191 373.205875 
L 710.900409 372.272131 
L 712.255627 373.963208 
L 713.610846 372.360501 
L 714.966064 389.028657 
L 716.321282 386.738024 
L 717.6765 392.557309 
L 719.031719 377.222089 
L 720.386937 369.802925 
L 721.742155 361.347354 
L 723.097373 358.512861 
L 724.452592 351.56793 
L 725.80781 349.180833 
L 727.163028 360.535347 
L 728.518247 358.821325 
L 729.873465 348.175428 
L 732.583901 355.6293 
L 733.93912 352.616922 
L 735.294338 356.742245 
L 736.649556 364.506483 
L 738.004775 378.478282 
L 739.359993 383.22934 
L 740.715211 393.190158 
L 742.070429 395.959474 
L 743.425648 395.532806 
L 744.780866 394.54642 
L 746.136084 387.511078 
L 747.491303 378.723465 
L 748.846521 383.092791 
L 750.201739 377.87371 
L 751.556957 376.62481 
L 752.912176 376.42923 
L 754.267394 362.394576 
L 755.622612 362.038626 
L 756.97783 367.594844 
L 758.333049 368.385658 
L 759.688267 367.454909 
L 761.043485 366.787174 
L 762.398704 363.297401 
L 763.753922 356.00292 
L 763.753922 356.00292 
" clip-path="url(#p11c32216fc)" style="fill: none; stroke: #ff0000; stroke-width: 1.5; stroke-linecap: square"/>
   </g>
   <g id="line2d_16">
    <path d="M 87.5 409.270734 
L 88.855218 402.592763 
L 90.210437 401.784153 
L 91.565655 405.891224 
L 92.920873 393.79714 
L 94.276091 399.430698 
L 95.63131 401.590954 
L 96.986528 391.52155 
L 98.341746 396.015648 
L 99.696965 394.435437 
L 101.052183 397.600331 
L 102.407401 389.282646 
L 103.762619 386.365709 
L 105.117838 391.472626 
L 106.473056 394.931503 
L 107.828274 385.91632 
L 109.183492 384.793945 
L 110.538711 374.406086 
L 111.893929 382.679128 
L 113.249147 374.754148 
L 114.604366 380.318748 
L 115.959584 381.538855 
L 117.314802 382.347673 
L 118.67002 383.97919 
L 120.025239 391.738025 
L 121.380457 391.30471 
L 122.735675 388.637642 
L 124.090894 384.061634 
L 125.446112 374.900056 
L 126.80133 381.511011 
L 128.156548 377.472804 
L 129.511767 380.824331 
L 132.222203 374.278711 
L 133.577422 375.217767 
L 134.93264 373.015518 
L 136.287858 372.807756 
L 137.643076 373.259091 
L 138.998295 358.688473 
L 140.353513 364.334897 
L 141.708731 367.516337 
L 143.063949 371.153419 
L 144.419168 366.901191 
L 145.774386 367.345612 
L 147.129604 365.807651 
L 148.484823 355.469548 
L 149.840041 358.299876 
L 151.195259 362.166738 
L 152.550477 346.320107 
L 153.905696 356.488015 
L 155.260914 359.366985 
L 156.616132 375.205624 
L 157.971351 382.217376 
L 159.326569 380.279887 
L 160.681787 369.266161 
L 162.037005 376.354207 
L 163.392224 384.714293 
L 164.747442 386.172993 
L 166.10266 385.45953 
L 167.457879 388.575791 
L 168.813097 392.726478 
L 170.168315 382.440636 
L 171.523533 380.859414 
L 172.878752 375.580355 
L 174.23397 383.475929 
L 175.589188 385.337525 
L 176.944407 396.83162 
L 178.299625 394.001681 
L 179.654843 395.681992 
L 181.010061 397.168144 
L 182.36528 395.479581 
L 185.075716 417.732395 
L 186.430934 414.511879 
L 187.786153 418.66049 
L 189.141371 412.300095 
L 190.496589 414.796977 
L 191.851808 424.571839 
L 193.207026 430.672018 
L 194.562244 436.241027 
L 195.917462 436.224304 
L 197.272681 437.99894 
L 198.627899 438.445766 
L 199.983117 445.812629 
L 201.338336 448.306464 
L 202.693554 439.361073 
L 204.048772 432.14698 
L 205.40399 438.265991 
L 206.759209 440.078001 
L 208.114427 445.154412 
L 209.469645 442.952874 
L 210.824864 444.34768 
L 212.180082 449.904145 
L 213.5353 448.553141 
L 214.890518 456.721432 
L 216.245737 457.678718 
L 217.600955 452.7818 
L 218.956173 446.924659 
L 220.311391 444.32028 
L 221.66661 447.917156 
L 223.021828 440.600811 
L 224.377046 429.984059 
L 225.732265 422.523998 
L 227.087483 418.997494 
L 228.442701 420.689497 
L 229.797919 422.164503 
L 231.153138 421.521015 
L 233.863574 430.44683 
L 235.218793 434.672973 
L 236.574011 423.192711 
L 237.929229 427.275985 
L 239.284447 427.51647 
L 241.994884 441.547725 
L 243.350102 433.526212 
L 244.705321 435.136599 
L 246.060539 437.461216 
L 247.415757 436.385096 
L 248.770975 428.507334 
L 250.126194 421.665041 
L 251.481412 425.515705 
L 252.83663 423.980069 
L 254.191848 420.083363 
L 255.547067 415.737641 
L 256.902285 417.718703 
L 258.257503 408.222927 
L 259.612722 410.390509 
L 260.96794 428.377917 
L 262.323158 419.6824 
L 263.678376 419.085268 
L 265.033595 427.778975 
L 266.388813 432.722545 
L 267.744031 424.143081 
L 269.09925 428.445028 
L 270.454468 430.904126 
L 271.809686 435.83066 
L 273.164904 422.298173 
L 274.520123 420.767754 
L 277.230559 400.730269 
L 278.585778 401.306404 
L 279.940996 404.897071 
L 281.296214 406.945763 
L 282.651432 414.121417 
L 284.006651 409.834714 
L 285.361869 402.085525 
L 286.717087 388.429804 
L 288.072305 398.801766 
L 289.427524 402.371651 
L 290.782742 401.392544 
L 292.13796 386.478588 
L 293.493179 386.766318 
L 294.848397 383.077429 
L 296.203615 385.691548 
L 297.558833 390.209406 
L 298.914052 388.685716 
L 300.26927 387.946838 
L 301.624488 378.384842 
L 302.979707 385.942792 
L 304.334925 386.684363 
L 305.690143 387.584692 
L 307.045361 386.56868 
L 308.40058 378.488467 
L 309.755798 366.852211 
L 311.111016 368.549797 
L 312.466235 373.548231 
L 313.821453 376.73573 
L 315.176671 372.522142 
L 316.531889 380.32167 
L 317.887108 360.465304 
L 319.242326 364.713773 
L 320.597544 358.053335 
L 321.952762 355.077398 
L 323.307981 344.246731 
L 324.663199 344.392718 
L 326.018417 351.023893 
L 327.373636 347.879194 
L 328.728854 355.30575 
L 330.084072 364.525984 
L 331.43929 355.070776 
L 332.794509 350.060717 
L 334.149727 348.604496 
L 335.504945 346.368102 
L 336.860164 351.768609 
L 338.215382 351.827471 
L 339.5706 351.244607 
L 340.925818 362.850397 
L 342.281037 366.779407 
L 343.636255 356.471746 
L 344.991473 353.702775 
L 346.346692 355.612444 
L 347.70191 359.467462 
L 349.057128 374.131057 
L 350.412346 377.319598 
L 351.767565 375.8206 
L 353.122783 371.814817 
L 354.478001 374.382535 
L 355.83322 366.96643 
L 357.188438 376.159016 
L 358.543656 369.536309 
L 359.898874 379.97226 
L 361.254093 392.768484 
L 362.609311 390.935009 
L 363.964529 382.302478 
L 365.319747 385.006678 
L 366.674966 369.927401 
L 368.030184 368.666899 
L 369.385402 372.187486 
L 370.740621 370.955762 
L 372.095839 370.84735 
L 373.451057 365.02607 
L 374.806275 377.512276 
L 376.161494 377.082232 
L 377.516712 381.553732 
L 378.87193 384.389929 
L 380.227149 381.890489 
L 381.582367 376.994605 
L 382.937585 374.107831 
L 384.292803 380.393345 
L 385.648022 376.598812 
L 387.00324 370.38763 
L 388.358458 374.615504 
L 389.713677 374.377489 
L 391.068895 377.072752 
L 392.424113 372.30475 
L 393.779331 373.328042 
L 395.13455 378.887176 
L 396.489768 388.664924 
L 397.844986 391.006718 
L 399.200204 391.374897 
L 400.555423 402.058322 
L 401.910641 394.851879 
L 403.265859 393.036117 
L 404.621078 392.231496 
L 405.976296 394.791078 
L 407.331514 397.90872 
L 408.686732 392.07302 
L 410.041951 383.656427 
L 411.397169 384.173511 
L 412.752387 384.263311 
L 414.107606 397.260318 
L 415.462824 396.488908 
L 416.818042 387.612026 
L 418.17326 382.232781 
L 419.528479 378.914577 
L 420.883697 389.950878 
L 422.238915 386.015654 
L 423.594134 397.350677 
L 424.949352 394.016257 
L 426.30457 392.849619 
L 427.659788 383.299036 
L 429.015007 385.632834 
L 430.370225 370.687308 
L 431.725443 370.765354 
L 433.080661 370.153106 
L 434.43588 368.330336 
L 435.791098 360.580193 
L 437.146316 359.748162 
L 438.501535 339.353344 
L 439.856753 323.958723 
L 441.211971 310.565257 
L 442.567189 301.188027 
L 443.922408 297.366573 
L 445.277626 297.297508 
L 446.632844 287.490109 
L 447.988063 279.668019 
L 449.343281 280.106892 
L 450.698499 278.325509 
L 452.053717 289.191417 
L 453.408936 290.001753 
L 454.764154 280.587103 
L 456.119372 285.755558 
L 457.474591 286.399414 
L 458.829809 272.80501 
L 460.185027 284.375574 
L 461.540245 282.322463 
L 462.895464 281.465459 
L 464.250682 283.249294 
L 465.6059 285.384714 
L 466.961118 293.643163 
L 468.316337 290.182021 
L 469.671555 291.136928 
L 471.026773 295.931337 
L 472.381992 290.388334 
L 473.73721 282.449402 
L 475.092428 278.805136 
L 476.447646 270.704465 
L 477.802865 275.0684 
L 479.158083 282.752974 
L 480.513301 274.573151 
L 483.223738 264.842062 
L 484.578956 262.004587 
L 485.934174 263.298169 
L 487.289393 258.538542 
L 488.644611 250.703675 
L 489.999829 246.390418 
L 491.355048 245.86302 
L 492.710266 239.199472 
L 494.065484 228.257497 
L 495.420702 240.738801 
L 496.775921 248.346086 
L 498.131139 241.569859 
L 499.486357 236.55472 
L 500.841575 236.83219 
L 502.196794 242.118718 
L 503.552012 237.6669 
L 504.90723 247.78004 
L 506.262449 242.677248 
L 507.617667 246.586347 
L 508.972885 249.77803 
L 510.328103 249.656974 
L 511.683322 259.681608 
L 513.03854 262.460711 
L 514.393758 265.645475 
L 515.748977 263.266062 
L 517.104195 273.796867 
L 518.459413 267.62229 
L 519.814631 259.668166 
L 521.16985 247.938111 
L 522.525068 244.749227 
L 523.880286 248.838097 
L 525.235505 254.565147 
L 526.590723 261.931266 
L 527.945941 261.851842 
L 529.301159 259.943128 
L 530.656378 266.529636 
L 533.366814 275.941178 
L 534.722033 287.819745 
L 536.077251 281.154391 
L 537.432469 282.854523 
L 538.787687 273.100228 
L 540.142906 278.851156 
L 541.498124 273.365672 
L 542.853342 274.669789 
L 544.20856 271.525374 
L 545.563779 258.84642 
L 546.918997 256.515405 
L 548.274215 247.526888 
L 549.629434 257.608879 
L 550.984652 269.467355 
L 552.33987 265.447095 
L 553.695088 264.65276 
L 555.050307 254.456644 
L 556.405525 260.647758 
L 557.760743 251.600865 
L 559.115962 256.665843 
L 560.47118 262.552786 
L 561.826398 269.208165 
L 563.181616 274.938584 
L 564.536835 271.838918 
L 565.892053 272.377446 
L 567.247271 266.218088 
L 568.60249 254.386253 
L 569.957708 260.750062 
L 571.312926 260.393131 
L 572.668144 261.439192 
L 574.023363 268.64946 
L 575.378581 260.11753 
L 576.733799 253.077521 
L 578.089017 246.993607 
L 579.444236 253.151836 
L 580.799454 247.90309 
L 582.154672 234.616936 
L 583.509891 233.15913 
L 584.865109 226.341283 
L 586.220327 220.263785 
L 587.575545 212.382423 
L 588.930764 211.375652 
L 590.285982 214.787976 
L 591.6412 214.622576 
L 592.996419 207.909298 
L 594.351637 211.923641 
L 595.706855 209.550528 
L 597.062073 199.57446 
L 598.417292 201.866825 
L 599.77251 202.427424 
L 601.127728 198.097067 
L 602.482947 199.944751 
L 603.838165 207.228847 
L 605.193383 210.75251 
L 606.548601 219.523422 
L 607.90382 227.543435 
L 609.259038 222.512502 
L 610.614256 218.454937 
L 611.969474 216.908153 
L 613.324693 221.56498 
L 614.679911 222.222145 
L 616.035129 230.078468 
L 617.390348 235.636606 
L 618.745566 229.897329 
L 621.456002 256.029357 
L 622.811221 258.997073 
L 624.166439 259.297021 
L 625.521657 267.209089 
L 626.876876 264.136012 
L 628.232094 272.850308 
L 629.587312 266.330586 
L 630.94253 282.639445 
L 632.297749 286.931371 
L 633.652967 287.006022 
L 635.008185 280.77416 
L 636.363404 270.913851 
L 637.718622 268.158785 
L 639.07384 275.293238 
L 640.429058 276.482185 
L 641.784277 279.39995 
L 643.139495 277.164102 
L 644.494713 278.961544 
L 645.849931 276.00095 
L 647.20515 269.735012 
L 648.560368 267.230347 
L 649.915586 266.379987 
L 651.270805 257.486685 
L 652.626023 252.934058 
L 653.981241 241.720667 
L 655.336459 239.439897 
L 656.691678 243.239455 
L 658.046896 240.766316 
L 659.402114 235.446505 
L 660.757333 246.988696 
L 662.112551 252.810549 
L 663.467769 246.338425 
L 664.822987 250.680119 
L 666.178206 249.720239 
L 667.533424 245.666495 
L 668.888642 238.832493 
L 670.243861 228.062249 
L 671.599079 225.796322 
L 672.954297 232.454746 
L 674.309515 235.583232 
L 675.664734 245.249851 
L 677.019952 245.611396 
L 678.37517 247.774852 
L 681.085607 235.667604 
L 682.440825 235.120198 
L 683.796043 234.157655 
L 685.151262 239.458599 
L 686.50648 242.530724 
L 687.861698 230.523988 
L 689.216916 229.414267 
L 690.572135 229.302268 
L 691.927353 222.805993 
L 693.282571 221.764387 
L 694.63779 228.970682 
L 695.993008 223.445391 
L 698.703444 233.078946 
L 700.058663 245.052542 
L 701.413881 235.720146 
L 702.769099 236.568587 
L 704.124318 230.83309 
L 705.479536 236.166987 
L 706.834754 232.635363 
L 708.189972 238.957393 
L 709.545191 238.504045 
L 710.900409 237.276833 
L 712.255627 238.674442 
L 713.610846 236.778267 
L 714.966064 253.152955 
L 716.321282 250.568854 
L 717.6765 256.094671 
L 719.031719 240.465983 
L 720.386937 232.753351 
L 721.742155 224.004312 
L 723.097373 220.876351 
L 724.452592 213.637952 
L 725.80781 210.957387 
L 727.163028 222.018432 
L 728.518247 220.010943 
L 729.873465 209.071578 
L 732.583901 215.938513 
L 733.93912 212.632668 
L 735.294338 216.464522 
L 736.649556 223.935293 
L 738.004775 237.613623 
L 739.359993 242.071214 
L 740.715211 251.738563 
L 742.070429 254.214411 
L 743.425648 253.494276 
L 744.780866 252.214421 
L 746.136084 244.885611 
L 747.491303 235.80453 
L 748.846521 239.880388 
L 750.201739 234.36784 
L 751.556957 232.825472 
L 752.912176 232.336423 
L 754.267394 218.008302 
L 755.622612 217.358883 
L 756.97783 222.621633 
L 758.333049 223.118979 
L 759.688267 221.894762 
L 761.043485 220.933559 
L 762.398704 217.150317 
L 763.753922 209.562369 
L 763.753922 209.562369 
" clip-path="url(#p11c32216fc)" style="fill: none; stroke: #000000; stroke-width: 1.5; stroke-linecap: square"/>
   </g>
   <g id="line2d_17">
    <path d="M 87.5 409.270734 
L 88.855218 402.299295 
L 90.210437 401.197217 
L 91.565655 405.01082 
L 92.920873 392.623268 
L 94.276091 397.963358 
L 95.63131 399.830145 
L 96.986528 389.467273 
L 98.341746 393.667903 
L 99.696965 391.794225 
L 101.052183 394.665651 
L 102.407401 386.054497 
L 103.762619 382.844093 
L 105.117838 387.657541 
L 106.473056 390.822951 
L 107.828274 381.514299 
L 109.183492 380.098456 
L 110.538711 369.417129 
L 111.893929 377.396703 
L 113.249147 369.178255 
L 114.604366 374.449387 
L 115.959584 375.376026 
L 117.314802 375.891376 
L 118.67002 377.229425 
L 120.025239 384.694792 
L 121.380457 383.968009 
L 122.735675 381.007473 
L 124.090894 376.137997 
L 125.446112 366.682951 
L 126.80133 373.000438 
L 128.156548 368.668763 
L 129.511767 371.726821 
L 132.222203 364.594266 
L 133.577422 365.239854 
L 134.93264 362.744136 
L 136.287858 362.242907 
L 137.643076 362.400774 
L 138.998295 347.536688 
L 140.353513 352.889643 
L 141.708731 355.777615 
L 143.063949 359.12123 
L 144.419168 354.575534 
L 145.774386 354.726486 
L 147.129604 352.895057 
L 148.484823 342.263486 
L 149.840041 344.800346 
L 151.195259 348.37374 
L 152.550477 332.233641 
L 153.905696 342.108081 
L 155.260914 344.693583 
L 156.616132 360.238754 
L 157.971351 366.957038 
L 159.326569 364.726081 
L 160.681787 353.418887 
L 162.037005 360.213465 
L 163.392224 368.280083 
L 164.747442 369.445315 
L 166.10266 368.438384 
L 167.457879 371.261176 
L 168.813097 375.118395 
L 170.168315 364.539085 
L 171.523533 362.664396 
L 172.878752 357.091868 
L 174.23397 364.693974 
L 175.589188 366.262102 
L 176.944407 377.46273 
L 178.299625 374.339322 
L 179.654843 375.726166 
L 181.010061 376.918849 
L 182.36528 374.936818 
L 185.075716 396.602696 
L 186.430934 393.088712 
L 187.786153 396.943855 
L 189.141371 390.289992 
L 190.496589 392.493406 
L 191.851808 401.9748 
L 193.207026 407.781511 
L 194.562244 413.057052 
L 195.917462 412.746861 
L 197.272681 414.228029 
L 198.627899 414.381386 
L 199.983117 421.454782 
L 201.338336 423.655148 
L 202.693554 414.41629 
L 204.048772 406.908729 
L 205.40399 412.734272 
L 206.759209 414.252814 
L 208.114427 419.035757 
L 209.469645 416.540751 
L 210.824864 417.642089 
L 212.180082 422.905085 
L 213.5353 421.260613 
L 214.890518 429.135436 
L 216.245737 429.799255 
L 217.600955 424.608868 
L 218.956173 418.458259 
L 220.311391 415.560412 
L 221.66661 418.86382 
L 223.021828 411.254008 
L 224.377046 400.343787 
L 225.732265 392.590258 
L 227.087483 388.770286 
L 228.442701 390.168821 
L 229.797919 391.350359 
L 231.153138 390.413403 
L 233.863574 398.752281 
L 235.218793 402.684957 
L 236.574011 390.911227 
L 237.929229 394.701033 
L 239.284447 394.64805 
L 241.994884 408.092369 
L 243.350102 399.777387 
L 244.705321 401.094306 
L 246.060539 403.125456 
L 247.415757 401.755867 
L 248.770975 393.584638 
L 250.126194 386.448877 
L 251.481412 390.006072 
L 252.83663 388.176968 
L 254.191848 383.986794 
L 255.547067 379.347604 
L 256.902285 381.035198 
L 258.257503 371.245954 
L 259.612722 373.120069 
L 260.96794 390.814008 
L 262.323158 381.825023 
L 263.678376 380.934423 
L 265.033595 389.334662 
L 266.388813 393.984764 
L 267.744031 385.111832 
L 269.09925 389.120311 
L 270.454468 391.285941 
L 271.809686 395.919007 
L 273.164904 382.093052 
L 274.520123 380.269165 
L 277.230559 359.644743 
L 278.585778 359.927411 
L 279.940996 363.224609 
L 281.296214 364.979834 
L 282.651432 371.86202 
L 284.006651 367.281849 
L 285.361869 359.239191 
L 286.717087 345.290002 
L 288.072305 355.368497 
L 289.427524 358.644913 
L 290.782742 357.372338 
L 292.13796 342.164915 
L 293.493179 342.159176 
L 294.848397 338.176819 
L 296.203615 340.49747 
L 297.558833 344.72186 
L 298.914052 342.904702 
L 300.26927 341.872356 
L 301.624488 332.016892 
L 302.979707 339.281374 
L 304.334925 339.729477 
L 305.690143 340.336338 
L 307.045361 339.026857 
L 308.40058 330.653177 
L 309.755798 318.723453 
L 311.111016 320.127571 
L 312.466235 324.832537 
L 313.821453 327.726568 
L 315.176671 323.219512 
L 316.531889 330.725572 
L 317.887108 310.575738 
L 319.242326 314.530738 
L 320.597544 307.576832 
L 321.952762 304.307428 
L 323.307981 293.183292 
L 324.663199 293.035812 
L 326.018417 299.373518 
L 327.373636 295.935351 
L 328.728854 303.068439 
L 330.084072 311.995205 
L 331.43929 302.246529 
L 332.794509 296.943002 
L 334.149727 295.193313 
L 335.504945 292.663451 
L 336.860164 297.77049 
L 338.215382 297.535883 
L 339.5706 296.659552 
L 340.925818 307.971874 
L 342.281037 311.607416 
L 343.636255 301.006287 
L 344.991473 297.943848 
L 346.346692 299.560049 
L 347.70191 303.121599 
L 349.057128 317.491726 
L 350.412346 320.386799 
L 351.767565 318.594333 
L 353.122783 314.295082 
L 354.478001 316.569331 
L 355.83322 308.859759 
L 357.188438 317.758876 
L 358.543656 310.842702 
L 359.898874 320.985184 
L 361.254093 333.487941 
L 362.609311 331.360998 
L 363.964529 322.434998 
L 365.319747 324.84573 
L 366.674966 309.472985 
L 368.030184 307.919015 
L 369.385402 311.146134 
L 370.740621 309.620942 
L 372.095839 309.219062 
L 373.451057 303.104314 
L 374.806275 315.297052 
L 376.161494 314.57354 
L 377.516712 318.751572 
L 378.87193 321.2943 
L 380.227149 318.501393 
L 381.582367 313.312041 
L 382.937585 310.131799 
L 384.292803 316.123844 
L 385.648022 312.035843 
L 387.00324 305.531194 
L 388.358458 309.4656 
L 389.713677 308.934117 
L 391.068895 311.335911 
L 392.424113 306.274441 
L 393.779331 307.004266 
L 395.13455 312.269931 
L 396.489768 321.754211 
L 397.844986 323.802537 
L 399.200204 323.877249 
L 400.555423 334.267205 
L 401.910641 326.767294 
L 403.265859 324.658064 
L 404.621078 323.559975 
L 405.976296 325.826089 
L 407.331514 328.650263 
L 408.686732 322.521095 
L 410.041951 313.811034 
L 411.397169 314.03465 
L 412.752387 313.830982 
L 414.107606 326.534521 
L 415.462824 325.469643 
L 416.818042 316.299293 
L 418.17326 310.626579 
L 419.528479 307.014908 
L 420.883697 317.75774 
L 422.238915 313.529048 
L 423.594134 324.570603 
L 424.949352 320.942715 
L 426.30457 319.48261 
L 427.659788 309.638558 
L 429.015007 311.678888 
L 430.370225 296.439894 
L 431.725443 296.224472 
L 433.080661 295.318757 
L 434.43588 293.202519 
L 435.791098 285.158907 
L 437.146316 284.033408 
L 438.501535 263.345122 
L 439.856753 247.657033 
L 441.211971 233.970099 
L 442.567189 224.2994 
L 443.922408 220.184479 
L 445.277626 219.821946 
L 446.632844 209.721078 
L 447.988063 201.605521 
L 449.343281 201.750926 
L 450.698499 199.676075 
L 452.053717 210.248515 
L 453.408936 210.765383 
L 454.764154 201.057265 
L 456.119372 205.932252 
L 457.474591 206.282639 
L 458.829809 192.394767 
L 460.185027 203.671863 
L 461.540245 201.325284 
L 462.895464 200.174813 
L 464.250682 201.665179 
L 465.6059 203.507131 
L 466.961118 211.472112 
L 468.316337 207.717502 
L 469.671555 208.378941 
L 471.026773 212.879882 
L 472.381992 207.043411 
L 473.73721 198.811011 
L 475.092428 194.873277 
L 476.447646 186.479138 
L 477.802865 190.549605 
L 479.158083 197.940711 
L 480.513301 189.46742 
L 483.223738 179.149394 
L 484.578956 176.018452 
L 485.934174 177.018566 
L 487.289393 171.965471 
L 488.644611 163.837135 
L 489.999829 159.23041 
L 491.355048 158.409544 
L 492.710266 151.452529 
L 494.065484 140.217085 
L 495.420702 152.404921 
L 496.775921 159.718739 
L 498.131139 152.649043 
L 499.486357 147.340437 
L 500.841575 147.324438 
L 502.196794 152.317498 
L 503.552012 147.572212 
L 504.90723 157.391884 
L 506.262449 151.995624 
L 507.617667 155.611255 
L 508.972885 158.509471 
L 510.328103 158.094946 
L 511.683322 167.826112 
L 513.03854 170.311747 
L 514.393758 173.203043 
L 515.748977 170.530162 
L 517.104195 180.767498 
L 518.459413 174.299454 
L 519.814631 166.051861 
L 521.16985 154.028339 
L 522.525068 150.545986 
L 523.880286 154.341389 
L 525.235505 159.77497 
L 526.590723 166.847622 
L 527.945941 166.47473 
L 529.301159 164.272548 
L 530.656378 170.565587 
L 533.366814 179.390193 
L 534.722033 190.975292 
L 536.077251 184.01647 
L 537.432469 185.423135 
L 538.787687 175.375371 
L 540.142906 180.832832 
L 541.498124 175.053879 
L 542.853342 176.064528 
L 544.20856 172.626645 
L 545.563779 159.654223 
L 546.918997 157.02974 
L 548.274215 147.747755 
L 549.629434 157.536277 
L 550.984652 169.101286 
L 552.33987 164.787558 
L 553.695088 163.699755 
L 555.050307 153.210171 
L 556.405525 159.107817 
L 557.760743 149.767455 
L 559.115962 154.538966 
L 560.47118 160.132441 
L 561.826398 166.494351 
L 563.181616 171.931302 
L 564.536835 168.538168 
L 565.892053 168.783228 
L 567.247271 162.330403 
L 568.60249 150.2051 
L 569.957708 156.27544 
L 571.312926 155.625042 
L 572.668144 156.377635 
L 574.023363 163.294434 
L 575.378581 154.469037 
L 576.733799 147.13556 
L 578.089017 140.758177 
L 579.444236 146.622938 
L 580.799454 141.080724 
L 582.154672 127.501102 
L 583.509891 125.749828 
L 584.865109 118.638513 
L 586.220327 112.267547 
L 587.575545 104.092717 
L 588.930764 102.792478 
L 590.285982 105.911334 
L 591.6412 105.452466 
L 592.996419 98.44572 
L 594.351637 102.166595 
L 595.706855 99.500014 
L 597.062073 89.230478 
L 598.417292 91.229375 
L 599.77251 91.496505 
L 601.127728 86.872681 
L 602.482947 88.426897 
L 603.838165 95.417525 
L 605.193383 98.647719 
L 606.548601 107.125163 
L 607.90382 114.851708 
L 609.259038 109.527307 
L 610.614256 105.176275 
L 611.969474 103.336022 
L 613.324693 107.699381 
L 614.679911 108.063078 
L 616.035129 115.625933 
L 617.390348 120.890603 
L 618.745566 114.857858 
L 621.456002 140.40295 
L 622.811221 143.077198 
L 624.166439 143.083678 
L 625.521657 150.702278 
L 626.876876 147.335732 
L 628.232094 155.756561 
L 629.587312 148.943371 
L 630.94253 164.958762 
L 632.297749 168.957219 
L 633.652967 168.738402 
L 635.008185 162.213073 
L 636.363404 152.059296 
L 637.718622 149.010761 
L 639.07384 155.851746 
L 640.429058 156.747225 
L 641.784277 159.371522 
L 643.139495 156.842206 
L 644.494713 158.34618 
L 645.849931 155.092118 
L 647.20515 148.532712 
L 648.560368 145.734579 
L 649.915586 144.590751 
L 651.270805 135.403981 
L 652.626023 130.557886 
L 653.981241 119.051027 
L 655.336459 116.476789 
L 656.691678 119.982879 
L 658.046896 117.216271 
L 659.402114 111.602993 
L 660.757333 122.851716 
L 662.112551 128.380101 
L 663.467769 121.614508 
L 664.822987 125.662734 
L 666.178206 124.409387 
L 667.533424 120.062174 
L 668.888642 112.934704 
L 670.243861 101.870992 
L 671.599079 99.311598 
L 672.954297 105.676553 
L 674.309515 108.511571 
L 675.664734 117.884723 
L 677.019952 117.952799 
L 678.37517 119.822787 
L 681.085607 107.128604 
L 682.440825 106.287729 
L 683.796043 105.031718 
L 685.151262 110.039194 
L 686.50648 112.817851 
L 687.861698 100.517647 
L 689.216916 99.114458 
L 690.572135 98.708991 
L 691.927353 91.919248 
L 693.282571 90.584174 
L 694.63779 97.497 
L 695.993008 91.678242 
L 698.703444 100.724861 
L 700.058663 112.404989 
L 701.413881 102.779125 
L 702.769099 103.334098 
L 704.124318 97.305133 
L 705.479536 102.345561 
L 706.834754 98.520469 
L 708.189972 104.549032 
L 709.545191 103.802216 
L 710.900409 102.281536 
L 712.255627 103.385676 
L 713.610846 101.196034 
L 714.966064 117.277254 
L 716.321282 114.399684 
L 717.6765 119.632033 
L 719.031719 103.709877 
L 720.386937 95.703778 
L 721.742155 86.66127 
L 723.097373 83.239841 
L 724.452592 75.707974 
L 725.80781 72.733941 
L 727.163028 83.501518 
L 728.518247 81.20056 
L 729.873465 69.967727 
L 732.583901 76.247727 
L 733.93912 72.648414 
L 735.294338 76.1868 
L 736.649556 83.364102 
L 738.004775 96.748965 
L 739.359993 100.913087 
L 740.715211 110.286969 
L 742.070429 112.469349 
L 743.425648 111.455745 
L 744.780866 109.882423 
L 746.136084 102.260144 
L 747.491303 92.885595 
L 748.846521 96.667985 
L 750.201739 90.861969 
L 751.556957 89.026133 
L 752.912176 88.243616 
L 754.267394 73.622027 
L 755.622612 72.67914 
L 756.97783 77.648422 
L 758.333049 77.8523 
L 759.688267 76.334615 
L 761.043485 75.079944 
L 762.398704 71.003234 
L 763.753922 63.121818 
L 763.753922 63.121818 
" clip-path="url(#p11c32216fc)" style="fill: none; stroke: #808080; stroke-width: 1.5; stroke-linecap: square"/>
   </g>
   <g id="line2d_18">
    <path d="M 87.5 409.270734 
L 763.753922 409.270734 
L 763.753922 409.270734 
" clip-path="url(#p11c32216fc)" style="fill: none; stroke-dasharray: 5.55,2.4; stroke-dashoffset: 0; stroke: #808080; stroke-width: 1.5"/>
   </g>
   <g id="patch_3">
    <path d="M 87.5 506.68 
L 763.753922 506.68 
" style="fill: none; stroke: #000000; stroke-width: 0.8; stroke-linejoin: miter; stroke-linecap: square"/>
   </g>
   <g id="text_17">
    <!-- $\mu=0.50$ -->
    <g style="fill: #ff0000" transform="translate(770.516461 360.86292) scale(0.18 -0.18)">
     <defs>
      <path id="DejaVuSans-Oblique-3bc" d="M -84 -1331 
L 856 3500 
L 1434 3500 
L 1009 1322 
Q 997 1256 987 1175 
Q 978 1094 978 1013 
Q 978 722 1161 565 
Q 1344 409 1684 409 
Q 2147 409 2431 671 
Q 2716 934 2816 1459 
L 3213 3500 
L 3788 3500 
L 3266 809 
Q 3253 750 3248 706 
Q 3244 663 3244 628 
Q 3244 531 3283 486 
Q 3322 441 3406 441 
Q 3438 441 3492 456 
Q 3547 472 3647 513 
L 3559 50 
Q 3422 -19 3297 -55 
Q 3172 -91 3053 -91 
Q 2847 -91 2730 40 
Q 2613 172 2613 403 
Q 2438 153 2195 31 
Q 1953 -91 1625 -91 
Q 1334 -91 1117 43 
Q 900 178 831 397 
L 494 -1331 
L -84 -1331 
z
" transform="scale(0.015625)"/>
      <path id="DejaVuSans-3d" d="M 678 2906 
L 4684 2906 
L 4684 2381 
L 678 2381 
L 678 2906 
z
M 678 1631 
L 4684 1631 
L 4684 1100 
L 678 1100 
L 678 1631 
z
" transform="scale(0.015625)"/>
      <path id="DejaVuSans-30" d="M 2034 4250 
Q 1547 4250 1301 3770 
Q 1056 3291 1056 2328 
Q 1056 1369 1301 889 
Q 1547 409 2034 409 
Q 2525 409 2770 889 
Q 3016 1369 3016 2328 
Q 3016 3291 2770 3770 
Q 2525 4250 2034 4250 
z
M 2034 4750 
Q 2819 4750 3233 4129 
Q 3647 3509 3647 2328 
Q 3647 1150 3233 529 
Q 2819 -91 2034 -91 
Q 1250 -91 836 529 
Q 422 1150 422 2328 
Q 422 3509 836 4129 
Q 1250 4750 2034 4750 
z
" transform="scale(0.015625)"/>
      <path id="DejaVuSans-2e" d="M 684 794 
L 1344 794 
L 1344 0 
L 684 0 
L 684 794 
z
" transform="scale(0.015625)"/>
      <path id="DejaVuSans-35" d="M 691 4666 
L 3169 4666 
L 3169 4134 
L 1269 4134 
L 1269 2991 
Q 1406 3038 1543 3061 
Q 1681 3084 1819 3084 
Q 2600 3084 3056 2656 
Q 3513 2228 3513 1497 
Q 3513 744 3044 326 
Q 2575 -91 1722 -91 
Q 1428 -91 1123 -41 
Q 819 9 494 109 
L 494 744 
Q 775 591 1075 516 
Q 1375 441 1709 441 
Q 2250 441 2565 725 
Q 2881 1009 2881 1497 
Q 2881 1984 2565 2268 
Q 2250 2553 1709 2553 
Q 1456 2553 1204 2497 
Q 953 2441 691 2322 
L 691 4666 
z
" transform="scale(0.015625)"/>
     </defs>
     <use xlink:href="#DejaVuSans-Oblique-3bc" transform="translate(0 0.78125)"/>
     <use xlink:href="#DejaVuSans-3d" transform="translate(83.105469 0.78125)"/>
     <use xlink:href="#DejaVuSans-30" transform="translate(186.376953 0.78125)"/>
     <use xlink:href="#DejaVuSans-2e" transform="translate(250 0.78125)"/>
     <use xlink:href="#DejaVuSans-35" transform="translate(281.787109 0.78125)"/>
     <use xlink:href="#DejaVuSans-30" transform="translate(345.410156 0.78125)"/>
    </g>
   </g>
   <g id="text_18">
    <!-- $\mu=1.00$ -->
    <g transform="translate(770.516461 214.422369) scale(0.18 -0.18)">
     <defs>
      <path id="DejaVuSans-31" d="M 794 531 
L 1825 531 
L 1825 4091 
L 703 3866 
L 703 4441 
L 1819 4666 
L 2450 4666 
L 2450 531 
L 3481 531 
L 3481 0 
L 794 0 
L 794 531 
z
" transform="scale(0.015625)"/>
     </defs>
     <use xlink:href="#DejaVuSans-Oblique-3bc" transform="translate(0 0.78125)"/>
     <use xlink:href="#DejaVuSans-3d" transform="translate(83.105469 0.78125)"/>
     <use xlink:href="#DejaVuSans-31" transform="translate(186.376953 0.78125)"/>
     <use xlink:href="#DejaVuSans-2e" transform="translate(250 0.78125)"/>
     <use xlink:href="#DejaVuSans-30" transform="translate(281.787109 0.78125)"/>
     <use xlink:href="#DejaVuSans-30" transform="translate(345.410156 0.78125)"/>
    </g>
   </g>
   <g id="text_19">
    <!-- $\mu=1.50$ -->
    <g style="fill: #808080" transform="translate(770.516461 67.981818) scale(0.18 -0.18)">
     <use xlink:href="#DejaVuSans-Oblique-3bc" transform="translate(0 0.78125)"/>
     <use xlink:href="#DejaVuSans-3d" transform="translate(83.105469 0.78125)"/>
     <use xlink:href="#DejaVuSans-31" transform="translate(186.376953 0.78125)"/>
     <use xlink:href="#DejaVuSans-2e" transform="translate(250 0.78125)"/>
     <use xlink:href="#DejaVuSans-35" transform="translate(281.787109 0.78125)"/>
     <use xlink:href="#DejaVuSans-30" transform="translate(345.410156 0.78125)"/>
    </g>
   </g>
   <g id="text_20">
    <!-- Baseline -->
    <g style="fill: #808080" transform="translate(770.516461 413.85089) scale(0.18 -0.18)">
     <defs>
      <path id="Helvetica-42" d="M 2213 2650 
Q 2606 2650 2825 2759 
Q 3169 2931 3169 3378 
Q 3169 3828 2803 3984 
Q 2597 4072 2191 4072 
L 1081 4072 
L 1081 2650 
L 2213 2650 
z
M 2422 531 
Q 2994 531 3238 863 
Q 3391 1072 3391 1369 
Q 3391 1869 2944 2050 
Q 2706 2147 2316 2147 
L 1081 2147 
L 1081 531 
L 2422 531 
z
M 472 4591 
L 2444 4591 
Q 3250 4591 3591 4109 
Q 3791 3825 3791 3453 
Q 3791 3019 3544 2741 
Q 3416 2594 3175 2472 
Q 3528 2338 3703 2169 
Q 4013 1869 4013 1341 
Q 4013 897 3734 538 
Q 3319 0 2413 0 
L 472 0 
L 472 4591 
z
" transform="scale(0.015625)"/>
      <path id="Helvetica-61" d="M 844 891 
Q 844 647 1022 506 
Q 1200 366 1444 366 
Q 1741 366 2019 503 
Q 2488 731 2488 1250 
L 2488 1703 
Q 2384 1638 2221 1594 
Q 2059 1550 1903 1531 
L 1563 1488 
Q 1256 1447 1103 1359 
Q 844 1213 844 891 
z
M 2206 2028 
Q 2400 2053 2466 2191 
Q 2503 2266 2503 2406 
Q 2503 2694 2298 2823 
Q 2094 2953 1713 2953 
Q 1272 2953 1088 2716 
Q 984 2584 953 2325 
L 428 2325 
Q 444 2944 830 3186 
Q 1216 3428 1725 3428 
Q 2316 3428 2684 3203 
Q 3050 2978 3050 2503 
L 3050 575 
Q 3050 488 3086 434 
Q 3122 381 3238 381 
Q 3275 381 3322 386 
Q 3369 391 3422 400 
L 3422 -16 
Q 3291 -53 3222 -62 
Q 3153 -72 3034 -72 
Q 2744 -72 2613 134 
Q 2544 244 2516 444 
Q 2344 219 2022 53 
Q 1700 -113 1313 -113 
Q 847 -113 551 170 
Q 256 453 256 878 
Q 256 1344 547 1600 
Q 838 1856 1309 1916 
L 2206 2028 
z
M 1741 3428 
L 1741 3428 
z
" transform="scale(0.015625)"/>
      <path id="Helvetica-73" d="M 747 1050 
Q 772 769 888 619 
Q 1100 347 1625 347 
Q 1938 347 2175 483 
Q 2413 619 2413 903 
Q 2413 1119 2222 1231 
Q 2100 1300 1741 1391 
L 1294 1503 
Q 866 1609 663 1741 
Q 300 1969 300 2372 
Q 300 2847 642 3140 
Q 984 3434 1563 3434 
Q 2319 3434 2653 2991 
Q 2863 2709 2856 2384 
L 2325 2384 
Q 2309 2575 2191 2731 
Q 1997 2953 1519 2953 
Q 1200 2953 1036 2831 
Q 872 2709 872 2509 
Q 872 2291 1088 2159 
Q 1213 2081 1456 2022 
L 1828 1931 
Q 2434 1784 2641 1647 
Q 2969 1431 2969 969 
Q 2969 522 2630 197 
Q 2291 -128 1597 -128 
Q 850 -128 539 211 
Q 228 550 206 1050 
L 747 1050 
z
M 1578 3428 
L 1578 3428 
z
" transform="scale(0.015625)"/>
      <path id="Helvetica-6c" d="M 428 4591 
L 991 4591 
L 991 0 
L 428 0 
L 428 4591 
z
" transform="scale(0.015625)"/>
      <path id="Helvetica-6e" d="M 413 3347 
L 947 3347 
L 947 2872 
Q 1184 3166 1450 3294 
Q 1716 3422 2041 3422 
Q 2753 3422 3003 2925 
Q 3141 2653 3141 2147 
L 3141 0 
L 2569 0 
L 2569 2109 
Q 2569 2416 2478 2603 
Q 2328 2916 1934 2916 
Q 1734 2916 1606 2875 
Q 1375 2806 1200 2600 
Q 1059 2434 1017 2257 
Q 975 2081 975 1753 
L 975 0 
L 413 0 
L 413 3347 
z
M 1734 3428 
L 1734 3428 
z
" transform="scale(0.015625)"/>
     </defs>
     <use xlink:href="#Helvetica-42"/>
     <use xlink:href="#Helvetica-61" x="66.699219"/>
     <use xlink:href="#Helvetica-73" x="122.314453"/>
     <use xlink:href="#Helvetica-65" x="172.314453"/>
     <use xlink:href="#Helvetica-6c" x="227.929688"/>
     <use xlink:href="#Helvetica-69" x="250.146484"/>
     <use xlink:href="#Helvetica-6e" x="272.363281"/>
     <use xlink:href="#Helvetica-65" x="327.978516"/>
    </g>
   </g>
   <g id="text_21">
    <!-- Brownian Motion -->
    <g transform="translate(343.701023 36) scale(0.22 -0.22)">
     <defs>
      <path id="Helvetica-72" d="M 428 3347 
L 963 3347 
L 963 2769 
Q 1028 2938 1284 3180 
Q 1541 3422 1875 3422 
Q 1891 3422 1928 3419 
Q 1966 3416 2056 3406 
L 2056 2813 
Q 2006 2822 1964 2825 
Q 1922 2828 1872 2828 
Q 1447 2828 1219 2554 
Q 991 2281 991 1925 
L 991 0 
L 428 0 
L 428 3347 
z
" transform="scale(0.015625)"/>
      <path id="Helvetica-6f" d="M 1741 363 
Q 2300 363 2508 786 
Q 2716 1209 2716 1728 
Q 2716 2197 2566 2491 
Q 2328 2953 1747 2953 
Q 1231 2953 997 2559 
Q 763 2166 763 1609 
Q 763 1075 997 719 
Q 1231 363 1741 363 
z
M 1763 3444 
Q 2409 3444 2856 3012 
Q 3303 2581 3303 1744 
Q 3303 934 2909 406 
Q 2516 -122 1688 -122 
Q 997 -122 590 345 
Q 184 813 184 1600 
Q 184 2444 612 2944 
Q 1041 3444 1763 3444 
z
M 1744 3428 
L 1744 3428 
z
" transform="scale(0.015625)"/>
      <path id="Helvetica-77" d="M 672 3347 
L 1316 709 
L 1969 3347 
L 2600 3347 
L 3256 725 
L 3941 3347 
L 4503 3347 
L 3531 0 
L 2947 0 
L 2266 2591 
L 1606 0 
L 1022 0 
L 56 3347 
L 672 3347 
z
" transform="scale(0.015625)"/>
      <path id="Helvetica-4d" d="M 472 4591 
L 1363 4591 
L 2681 709 
L 3991 4591 
L 4872 4591 
L 4872 0 
L 4281 0 
L 4281 2709 
Q 4281 2850 4287 3175 
Q 4294 3500 4294 3872 
L 2984 0 
L 2369 0 
L 1050 3872 
L 1050 3731 
Q 1050 3563 1058 3217 
Q 1066 2872 1066 2709 
L 1066 0 
L 472 0 
L 472 4591 
z
" transform="scale(0.015625)"/>
     </defs>
     <use xlink:href="#Helvetica-42"/>
     <use xlink:href="#Helvetica-72" x="66.699219"/>
     <use xlink:href="#Helvetica-6f" x="100"/>
     <use xlink:href="#Helvetica-77" x="155.615234"/>
     <use xlink:href="#Helvetica-6e" x="227.832031"/>
     <use xlink:href="#Helvetica-69" x="283.447266"/>
     <use xlink:href="#Helvetica-61" x="305.664062"/>
     <use xlink:href="#Helvetica-6e" x="361.279297"/>
     <use xlink:href="#Helvetica-20" x="416.894531"/>
     <use xlink:href="#Helvetica-4d" x="444.677734"/>
     <use xlink:href="#Helvetica-6f" x="527.978516"/>
     <use xlink:href="#Helvetica-74" x="583.59375"/>
     <use xlink:href="#Helvetica-69" x="611.376953"/>
     <use xlink:href="#Helvetica-6f" x="633.59375"/>
     <use xlink:href="#Helvetica-6e" x="689.208984"/>
    </g>
   </g>
  </g>
 </g>
 <defs>
  <clipPath id="p11c32216fc">
   <rect x="87.5" y="42" width="676.253922" height="464.68"/>
  </clipPath>
 </defs>
</svg>
